<?xml version="1.0" encoding="UTF-8" standalone="no"?>
<!DOCTYPE svg PUBLIC "-//W3C//DTD SVG 1.1//EN" "http://www.w3.org/Graphics/SVG/1.1/DTD/svg11.dtd">
<svg width="100%" height="100%" viewBox="0 0 427 427" version="1.1" xmlns="http://www.w3.org/2000/svg" xmlns:xlink="http://www.w3.org/1999/xlink" xml:space="preserve" xmlns:serif="http://www.serif.com/" style="fill-rule:evenodd;clip-rule:evenodd;stroke-linejoin:round;stroke-miterlimit:2;">
    <path d="M405.332,192L234.668,192L234.668,21.332C234.668,9.559 225.109,0 213.332,0C201.559,0 192,9.559 192,21.332L192,192L21.332,192C9.559,192 -0,201.559 -0,213.332C-0,225.109 9.559,234.668 21.332,234.668L192,234.668L192,405.332C192,417.109 201.559,426.668 213.332,426.668C225.109,426.668 234.668,417.109 234.668,405.332L234.668,234.668L405.332,234.668C417.109,234.668 426.668,225.109 426.668,213.332C426.668,201.559 417.109,192 405.332,192Z" style="fill:white;fill-rule:nonzero;"/>
</svg>
